# ProBuilder 4.0.5
# https://unity3d.com/unity/features/worldbuilding/probuilder
# 5/15/2019 8:56:28 AM

mtllib ./Prism_10x20_30D.mtl
o Prism_10x20_30D

g Prism_10x20_30D
v -2.384186E-07 5.960465E-07 10
v 9.536743E-07 0 -10
v 9.5367E-07 10 -9.999999
v -10 0 -10
v -10 10 -10
v -10 5.960466E-07 10

vt -5.000001 2.634525E-05
vt 15 2.574921E-05
vt 15 10.00003
vt 0.9921256 1.005267
vt 10.99213 1.005267
vt 0.9921256 11.00527
vt 10.99213 11.00527
vt -15 1.049042E-05
vt 5.000001 1.108646E-05
vt -15 10.00001
vt 1.907349E-06 16.91349
vt -10 16.91349
vt -9.536743E-07 -5.447196
vt -10 -5.447194
vt 2.384185E-07 15
vt 1.430511E-06 -5.000001
vt -10 15
vt -10 -5.000002

vn 1 4.206413E-13 5.960464E-08
vn 9.536743E-08 1.907349E-07 -1
vn -1 1.818989E-14 -9.536743E-08
vn -8.52992E-08 0.8944272 0.4472135
vn -8.526511E-15 -1 2.980232E-08

g Prism_10x20_30D
usemtl Mat-PrototypeGridWhite
f 1/1/1 2/2/1 3/3/1
f 4/8/3 6/9/3 5/10/3
f 3/6/2 2/4/2 4/5/2
f 4/5/2 5/7/2 3/6/2
f 5/13/4 6/11/4 1/12/4
f 1/12/4 3/14/4 5/13/4
f 4/18/5 2/16/5 1/15/5
f 1/15/5 6/17/5 4/18/5

